<?xml version="1.0" encoding="UTF-8"?>
<svg id="Layer_1" data-name="Layer 1" xmlns="http://www.w3.org/2000/svg" viewBox="0 0 383.04 173.26">
  <defs>
    <style>
      .cls-1 {
        letter-spacing: 0em;
      }

      .cls-2 {
        font-family: Raleway-SemiBold, Raleway;
        font-size: 12.34px;
        font-weight: 600;
      }

      .cls-2, .cls-3 {
        fill: #fbb616;
      }

      .cls-4 {
        letter-spacing: -.02em;
      }

      .cls-5 {
        letter-spacing: 0em;
      }

      .cls-6 {
        letter-spacing: 0em;
      }

      .cls-7 {
        letter-spacing: 0em;
      }

      .cls-8 {
        letter-spacing: -.02em;
      }

      .cls-9 {
        letter-spacing: 0em;
      }

      .cls-10 {
        letter-spacing: -.02em;
      }

      .cls-11 {
        letter-spacing: 0em;
      }

      .cls-12 {
        letter-spacing: -.02em;
      }

      .cls-13 {
        letter-spacing: -.01em;
      }

      .cls-14 {
        letter-spacing: -.08em;
      }

      .cls-15 {
        fill: #414042;
      }
    </style>
  </defs>
  <g>
    <polygon class="cls-3" points="47.13 60.25 63.61 48.11 67.95 51.3 75.06 46.08 61.72 36.27 38.59 53.27 38.59 118.7 46.98 114.32 47.13 60.25"/>
    <polygon class="cls-3" points="102.99 60.25 86.51 48.11 82.17 51.3 75.06 46.08 88.4 36.27 111.54 53.27 111.54 118.7 103.14 114.32 102.99 60.25"/>
    <polygon class="cls-3" points="75.06 56.52 82.17 51.3 75.06 46.08 67.95 51.3 75.06 56.52"/>
  </g>
  <g>
    <polygon class="cls-15" points="18 133.84 31.48 133.84 70.94 103.57 18 133.84"/>
    <polygon class="cls-15" points="129.86 133.84 116.38 133.84 76.93 103.57 129.86 133.84"/>
    <polygon class="cls-15" points="81.48 133.84 65.48 133.84 68.43 124.23 79.18 124.23 81.48 133.84"/>
    <polygon class="cls-15" points="78.29 119.89 69.57 119.89 71.15 112.86 76.75 112.86 78.29 119.89"/>
    <polygon class="cls-15" points="76.67 110.74 71.15 110.74 72.48 104.02 75.4 104.02 76.67 110.74"/>
    <g>
      <polygon class="cls-15" points="63.61 50.89 48.91 61.69 48.91 113.12 65.27 103.77 66.66 102.97 66.66 65.48 75.06 59.3 67.95 54.08 63.61 50.89"/>
      <polygon class="cls-15" points="86.51 50.89 82.17 54.08 75.06 59.3 83.46 65.48 83.46 104.26 84.85 105.06 101.21 114.41 101.21 61.69 86.51 50.89"/>
    </g>
  </g>
  <text class="cls-2" transform="translate(138.14 134.18)"><tspan class="cls-14" x="0" y="0">Y</tspan><tspan class="cls-6" x="6.87" y="0">ou</tspan><tspan class="cls-10" x="21.84" y="0">r</tspan><tspan class="cls-11" x="26.2" y="0" xml:space="preserve"> g</tspan><tspan class="cls-5" x="36.96" y="0">a</tspan><tspan x="43.85" y="0">t</tspan><tspan class="cls-4" x="48.34" y="0">e</tspan><tspan class="cls-13" x="55.47" y="0">w</tspan><tspan class="cls-8" x="65.59" y="0">a</tspan><tspan class="cls-12" x="72.35" y="0">y</tspan><tspan class="cls-6" x="78.76" y="0"> </tspan><tspan class="cls-1" x="81.78" y="0">t</tspan><tspan class="cls-6" x="86.16" y="0">o </tspan><tspan class="cls-7" x="96.6" y="0">E</tspan><tspan x="104.07" y="0">ngineering Sol</tspan><tspan class="cls-9" x="188.41" y="0">u</tspan><tspan x="195.93" y="0">tions.</tspan></text>
  <g>
    <path class="cls-15" d="M145.16,116.93c-.87,0-1.69-.16-2.43-.48s-1.4-.75-1.94-1.3-.97-1.2-1.28-1.95c-.31-.75-.46-1.55-.46-2.4v-.03c0-.85.15-1.65.46-2.39.31-.74.73-1.4,1.28-1.96.54-.56,1.2-1,1.96-1.33.76-.32,1.6-.49,2.52-.49.56,0,1.06.05,1.52.14.46.09.88.22,1.25.37.37.16.72.35,1.04.58.32.23.61.48.89.75l-1.67,1.92c-.47-.42-.94-.75-1.42-.99s-1.02-.36-1.63-.36c-.5,0-.96.1-1.39.29-.42.19-.79.46-1.1.8-.31.34-.54.73-.72,1.18-.17.45-.25.93-.25,1.44v.03c0,.51.08.99.25,1.45.17.45.41.85.71,1.19.3.34.66.61,1.09.81s.89.3,1.41.3c.68,0,1.26-.12,1.73-.37.47-.25.94-.59,1.4-1.02l1.67,1.69c-.31.33-.62.62-.95.89-.33.26-.69.49-1.08.67-.39.19-.82.33-1.29.43-.47.1-.99.15-1.57.15Z"/>
    <path class="cls-15" d="M157.93,116.93c-.92,0-1.77-.16-2.54-.49-.77-.32-1.44-.76-2-1.31-.56-.55-1-1.2-1.31-1.94-.31-.74-.47-1.54-.47-2.39v-.03c0-.85.16-1.65.48-2.39.32-.74.76-1.4,1.32-1.96.56-.56,1.23-1,2.01-1.33.78-.32,1.63-.49,2.55-.49s1.76.16,2.54.49c.77.32,1.44.76,2,1.31.56.55,1,1.2,1.31,1.94.31.74.47,1.54.47,2.39v.03c0,.85-.16,1.65-.48,2.39-.32.74-.76,1.4-1.32,1.96-.56.56-1.23,1-2.01,1.33-.78.32-1.63.49-2.55.49ZM157.96,114.51c.52,0,1-.1,1.45-.29.44-.19.82-.46,1.13-.8.31-.34.56-.73.73-1.18.18-.45.26-.93.26-1.44v-.03c0-.51-.09-.99-.26-1.45s-.43-.85-.75-1.19c-.32-.34-.71-.61-1.15-.81s-.93-.3-1.45-.3-1.02.1-1.46.29c-.44.19-.81.46-1.12.8-.31.34-.56.73-.73,1.18-.18.45-.26.93-.26,1.44v.03c0,.51.09.99.26,1.45s.43.85.75,1.19c.32.34.7.61,1.14.81.44.2.92.3,1.46.3Z"/>
    <path class="cls-15" d="M166.62,104.8h2.42l5.59,7.34v-7.34h2.59v11.92h-2.23l-5.77-7.58v7.58h-2.59v-11.92Z"/>
    <path class="cls-15" d="M184.32,116.89c-.91,0-1.8-.16-2.67-.47-.88-.31-1.67-.79-2.38-1.44l1.55-1.86c.54.44,1.1.79,1.68,1.06.57.26,1.2.39,1.88.39.54,0,.97-.1,1.27-.3.3-.2.45-.47.45-.83v-.03c0-.17-.03-.32-.09-.45-.06-.13-.18-.25-.36-.37-.18-.11-.42-.23-.73-.34-.31-.11-.72-.23-1.22-.36-.6-.15-1.15-.31-1.64-.49s-.91-.41-1.25-.67c-.34-.27-.61-.6-.79-1-.19-.4-.28-.89-.28-1.48v-.03c0-.54.1-1.04.3-1.47s.49-.81.85-1.13c.37-.32.8-.56,1.31-.73.51-.17,1.07-.26,1.68-.26.87,0,1.68.13,2.41.39.73.26,1.41.64,2.02,1.12l-1.36,1.98c-.53-.36-1.06-.65-1.57-.86-.51-.21-1.02-.31-1.53-.31s-.89.1-1.15.3c-.26.2-.38.45-.38.74v.03c0,.19.04.36.11.5.07.14.21.27.4.38.19.11.46.22.79.32.34.1.76.22,1.27.36.6.16,1.14.34,1.61.54.47.2.87.44,1.2.72.32.28.57.6.73.98.17.37.25.82.25,1.35v.03c0,.59-.11,1.12-.32,1.58-.21.46-.51.85-.9,1.16-.38.31-.84.55-1.37.72s-1.12.25-1.77.25Z"/>
    <path class="cls-15" d="M195.94,116.91c-1.6,0-2.86-.44-3.78-1.33-.92-.89-1.38-2.21-1.38-3.97v-6.81h2.62v6.74c0,.98.23,1.71.68,2.21.45.49,1.08.74,1.89.74s1.44-.24,1.89-.72c.45-.48.68-1.19.68-2.15v-6.83h2.62v6.73c0,.91-.12,1.7-.37,2.37s-.59,1.23-1.05,1.68c-.45.45-1,.78-1.65,1-.65.22-1.37.33-2.16.33Z"/>
    <path class="cls-15" d="M203.84,104.8h2.62v9.55h5.94v2.37h-8.57v-11.92Z"/>
    <path class="cls-15" d="M217.16,107.22h-3.63v-2.42h9.88v2.42h-3.63v9.5h-2.62v-9.5Z"/>
    <path class="cls-15" d="M225.54,104.8h2.62v11.92h-2.62v-11.92Z"/>
    <path class="cls-15" d="M231.14,104.8h2.42l5.59,7.34v-7.34h2.59v11.92h-2.23l-5.77-7.58v7.58h-2.59v-11.92Z"/>
    <path class="cls-15" d="M250.33,116.93c-.93,0-1.78-.15-2.55-.46-.77-.31-1.42-.73-1.97-1.28-.55-.54-.98-1.19-1.29-1.94-.31-.75-.46-1.57-.46-2.45v-.03c0-.85.16-1.65.47-2.39.31-.74.75-1.4,1.3-1.96.56-.56,1.21-1,1.98-1.33.76-.32,1.59-.49,2.5-.49.53,0,1.02.04,1.46.11.44.07.84.18,1.22.31.37.14.73.31,1.06.51.33.2.65.44.95.7l-1.65,1.99c-.23-.19-.45-.36-.68-.51-.23-.15-.46-.27-.71-.38s-.51-.18-.79-.24c-.28-.06-.6-.08-.94-.08-.48,0-.92.1-1.34.3-.42.2-.78.47-1.09.8-.31.34-.56.73-.73,1.18-.18.45-.26.93-.26,1.44v.03c0,.55.09,1.05.26,1.51.18.46.43.86.75,1.2.32.34.7.61,1.14.79.44.19.92.28,1.46.28.98,0,1.8-.24,2.47-.72v-1.72h-2.64v-2.26h5.18v5.18c-.61.52-1.34.97-2.19,1.34-.85.37-1.81.55-2.9.55Z"/>
    <path class="cls-15" d="M263.05,104.8h8.97v2.33h-6.39v2.42h5.62v2.33h-5.62v2.5h6.47v2.33h-9.06v-11.92Z"/>
    <path class="cls-15" d="M274.46,104.8h2.42l5.59,7.34v-7.34h2.59v11.92h-2.23l-5.77-7.58v7.58h-2.59v-11.92Z"/>
    <path class="cls-15" d="M293.65,116.93c-.93,0-1.78-.15-2.55-.46-.77-.31-1.42-.73-1.97-1.28-.55-.54-.98-1.19-1.29-1.94-.31-.75-.46-1.57-.46-2.45v-.03c0-.85.16-1.65.47-2.39.31-.74.75-1.4,1.3-1.96.56-.56,1.21-1,1.98-1.33.76-.32,1.59-.49,2.5-.49.53,0,1.02.04,1.46.11.44.07.84.18,1.22.31.37.14.73.31,1.06.51.33.2.65.44.95.7l-1.65,1.99c-.23-.19-.45-.36-.68-.51-.23-.15-.46-.27-.71-.38s-.51-.18-.79-.24c-.28-.06-.6-.08-.94-.08-.48,0-.92.1-1.34.3-.42.2-.78.47-1.09.8-.31.34-.56.73-.73,1.18-.18.45-.26.93-.26,1.44v.03c0,.55.09,1.05.26,1.51.18.46.43.86.75,1.2.32.34.7.61,1.14.79.44.19.92.28,1.46.28.98,0,1.8-.24,2.47-.72v-1.72h-2.64v-2.26h5.18v5.18c-.61.52-1.34.97-2.19,1.34-.85.37-1.81.55-2.9.55Z"/>
    <path class="cls-15" d="M301.38,104.8h2.62v11.92h-2.62v-11.92Z"/>
    <path class="cls-15" d="M306.99,104.8h2.42l5.59,7.34v-7.34h2.59v11.92h-2.23l-5.77-7.58v7.58h-2.59v-11.92Z"/>
    <path class="cls-15" d="M320.44,104.8h8.97v2.33h-6.39v2.42h5.62v2.33h-5.62v2.5h6.47v2.33h-9.06v-11.92Z"/>
    <path class="cls-15" d="M331.85,104.8h8.97v2.33h-6.39v2.42h5.62v2.33h-5.62v2.5h6.47v2.33h-9.06v-11.92Z"/>
    <path class="cls-15" d="M343.26,104.8h5.45c1.51,0,2.67.4,3.47,1.21.68.68,1.02,1.59,1.02,2.72v.03c0,.96-.24,1.75-.71,2.36-.47.61-1.09,1.05-1.85,1.34l2.91,4.26h-3.07l-2.55-3.81h-2.06v3.81h-2.62v-11.92ZM348.54,110.59c.65,0,1.14-.15,1.49-.46.35-.31.52-.72.52-1.23v-.03c0-.57-.18-.99-.54-1.28-.36-.28-.87-.43-1.52-.43h-2.61v3.42h2.66Z"/>
    <path class="cls-15" d="M359.83,116.89c-.91,0-1.8-.16-2.67-.47-.88-.31-1.67-.79-2.38-1.44l1.55-1.86c.54.44,1.1.79,1.68,1.06.57.26,1.2.39,1.88.39.54,0,.97-.1,1.27-.3.3-.2.45-.47.45-.83v-.03c0-.17-.03-.32-.09-.45-.06-.13-.18-.25-.36-.37-.18-.11-.42-.23-.73-.34-.31-.11-.72-.23-1.22-.36-.6-.15-1.15-.31-1.64-.49s-.91-.41-1.25-.67c-.34-.27-.61-.6-.79-1-.19-.4-.28-.89-.28-1.48v-.03c0-.54.1-1.04.3-1.47s.49-.81.85-1.13c.37-.32.8-.56,1.31-.73.51-.17,1.07-.26,1.68-.26.87,0,1.68.13,2.41.39.73.26,1.41.64,2.02,1.12l-1.36,1.98c-.53-.36-1.06-.65-1.57-.86-.51-.21-1.02-.31-1.53-.31s-.89.1-1.15.3c-.26.2-.38.45-.38.74v.03c0,.19.04.36.11.5.07.14.21.27.4.38.19.11.46.22.79.32.34.1.76.22,1.27.36.6.16,1.14.34,1.61.54.47.2.87.44,1.2.72.32.28.57.6.73.98.17.37.25.82.25,1.35v.03c0,.59-.11,1.12-.32,1.58-.21.46-.51.85-.9,1.16-.38.31-.84.55-1.37.72s-1.12.25-1.77.25Z"/>
  </g>
  <g>
    <path class="cls-15" d="M138.14,51.94h10.54l11.68,18.79,11.68-18.79h10.54v44.44h-9.65v-29.01l-12.51,18.98h-.25l-12.38-18.79v28.82h-9.65v-44.44Z"/>
    <path class="cls-15" d="M208.48,51.62h9.01l19.05,44.76h-10.22l-4.06-9.97h-18.79l-4.06,9.97h-9.97l19.05-44.76ZM218.77,77.78l-5.9-14.41-5.9,14.41h11.81Z"/>
    <path class="cls-15" d="M259.27,97.01c-3.39,0-6.71-.58-9.97-1.75-3.26-1.16-6.22-2.95-8.89-5.36l5.78-6.92c2.03,1.65,4.12,2.96,6.25,3.94,2.14.97,4.48,1.46,7.01,1.46,2.03,0,3.61-.37,4.73-1.11,1.12-.74,1.68-1.77,1.68-3.08v-.13c0-.63-.12-1.2-.35-1.68-.23-.49-.68-.94-1.34-1.37-.66-.42-1.57-.85-2.74-1.27-1.17-.42-2.68-.87-4.55-1.33-2.25-.55-4.29-1.16-6.11-1.84-1.83-.68-3.37-1.51-4.65-2.51-1.27-.99-2.26-2.23-2.96-3.71-.7-1.48-1.05-3.32-1.05-5.52v-.13c0-2.03.38-3.86,1.13-5.49.76-1.63,1.82-3.04,3.18-4.22,1.37-1.18,3-2.09,4.9-2.73,1.9-.64,3.99-.95,6.27-.95,3.26,0,6.25.49,8.98,1.46,2.73.97,5.24,2.37,7.52,4.19l-5.08,7.36c-1.99-1.35-3.94-2.42-5.84-3.21-1.9-.78-3.81-1.17-5.71-1.17s-3.33.37-4.29,1.11c-.95.74-1.43,1.66-1.43,2.76v.13c0,.72.14,1.34.41,1.87.28.53.77,1.01,1.5,1.43.72.42,1.71.83,2.96,1.21,1.25.38,2.83.83,4.74,1.33,2.25.59,4.25,1.26,6.02,2,1.76.74,3.25,1.63,4.46,2.67,1.21,1.04,2.12,2.25,2.74,3.65.62,1.4.92,3.07.92,5.02v.13c0,2.2-.4,4.16-1.2,5.87-.8,1.71-1.91,3.15-3.34,4.32-1.43,1.16-3.14,2.05-5.12,2.67-1.98.61-4.18.92-6.59.92Z"/>
    <path class="cls-15" d="M284.03,51.94h33.84v8.82h-24.06v9.59h21.21v8.82h-21.21v17.2h-9.78v-44.44Z"/>
    <path class="cls-15" d="M338.19,78.86l-17.08-26.92h11.43l10.6,17.84,10.79-17.84h11.11l-17.08,26.73v17.71h-9.78v-17.52Z"/>
  </g>
</svg>